<svg version="1.1" id="Layer_1" xmlns="http://www.w3.org/2000/svg" xmlns:xlink="http://www.w3.org/1999/xlink" x="0px" y="0px"
	 width="100%" viewBox="0 0 944 672" enable-background="new 0 0 944 672" xml:space="preserve">
<path fill="#000000" opacity="1.000000" stroke="none" 
	d="
M302.482697,532.521240 
	C285.250732,516.322021 271.160370,498.087067 258.968140,478.267273 
	C241.780533,450.326996 230.292130,420.160767 223.144241,388.263824 
	C220.854294,378.045013 220.424286,367.556122 219.828217,357.157562 
	C218.020447,325.620209 220.306870,294.427277 228.307022,263.724945 
	C241.580719,212.784149 268.643707,170.270294 306.815063,134.518021 
	C322.672272,119.665764 340.223633,107.088974 359.038971,96.200615 
	C384.345398,81.555878 411.491516,71.966438 440.054504,66.266098 
	C460.981903,62.089588 482.125549,59.332535 503.501160,60.785088 
	C530.790222,62.639469 557.463135,67.706039 583.520630,76.397057 
	C620.542480,88.745064 652.709351,108.945663 680.952820,135.467911 
	C702.924133,156.100143 721.358032,179.560226 735.664246,206.304199 
	C749.774231,232.681412 759.122253,260.483124 764.285461,289.889221 
	C766.850586,304.498444 768.797241,319.148285 768.918518,333.934296 
	C769.060547,351.252930 766.851990,368.400757 763.652222,385.441162 
	C758.550354,412.611877 749.972595,438.551147 737.090393,463.033783 
	C727.230957,481.771606 715.449341,499.237885 701.436035,515.093018 
	C698.157532,518.802307 695.075928,522.901428 690.500183,525.522766 
	C686.859131,527.608643 685.796326,532.194153 682.637573,535.071899 
	C672.289062,544.499634 661.349243,553.190735 650.389893,561.867188 
	C646.589478,564.875977 642.261780,567.025146 637.638733,568.341919 
	C633.428040,569.541199 632.337402,574.337097 627.883789,575.585388 
	C621.830627,577.282104 616.393921,580.735107 610.991699,584.069458 
	C605.699646,587.335815 599.212402,587.303650 593.617249,589.989929 
	C585.271301,593.996765 577.133850,598.657959 567.774170,600.090210 
	C551.939514,602.513245 536.462891,606.910095 520.446838,608.392395 
	C508.209167,609.525085 495.954132,609.513489 483.716064,609.300781 
	C452.988556,608.766846 423.558502,601.908203 394.776337,591.259705 
	C366.954620,580.966553 341.785767,566.396912 319.074554,547.463684 
	C313.452057,542.776367 308.175201,537.674438 302.482697,532.521240 
M661.983276,375.251648 
	C657.687866,390.566101 654.827148,406.265442 649.636780,421.615417 
	C679.086182,422.778717 708.412109,426.151886 737.912598,427.315216 
	C733.073914,429.467621 728.078857,429.253021 723.146301,429.021332 
	C695.873962,427.740387 668.595398,426.539307 641.341919,424.924530 
	C621.006104,423.719666 600.764832,424.629822 580.534119,426.462067 
	C574.065002,427.047913 567.325012,435.895294 568.632568,441.971954 
	C568.996765,443.664825 568.451965,444.507263 567.279907,445.278442 
	C565.319092,446.568420 562.774597,447.865234 563.590149,450.549561 
	C564.439941,453.346741 567.420837,454.088409 570.053101,454.527374 
	C572.889099,455.000214 575.788940,455.089478 579.875488,455.454651 
	C570.790222,462.856476 558.916992,457.907623 550.588196,465.364868 
	C553.567810,466.657104 556.123108,467.632050 558.559998,468.844910 
	C569.963989,474.520966 582.967651,470.320007 594.581970,474.703491 
	C595.107666,474.901886 596.031128,474.683044 596.488953,474.312317 
	C598.312439,472.835632 600.289795,474.113586 601.983276,473.840057 
	C605.533630,473.266510 605.695190,477.186584 608.966553,477.754456 
	C614.431274,478.703064 620.568298,476.492432 625.478088,480.536499 
	C626.525024,481.398834 627.771729,481.089569 628.786621,480.506683 
	C630.990967,479.240784 632.915588,480.369476 635.005859,480.856567 
	C640.041443,482.029938 643.744690,486.809875 649.399231,486.165771 
	C653.016357,485.753784 656.267761,487.877838 659.631165,487.817871 
	C663.000122,487.757843 667.006775,488.499756 669.886658,484.824585 
	C670.373535,486.592407 670.800903,488.144135 671.084106,489.172424 
	C683.203613,494.264038 696.595032,492.117462 708.933289,496.650482 
	C713.530762,491.676392 716.985168,485.777557 720.720337,480.073792 
	C741.761292,447.943359 752.958862,411.948486 761.640198,375.035614 
	C764.961914,360.911865 765.351807,346.459778 763.939758,331.989838 
	C762.936829,321.711334 763.488342,311.452362 762.034973,301.039978 
	C758.742737,277.453125 751.304199,255.162949 743.838623,232.870193 
	C740.505188,222.916245 734.629761,213.798782 729.765747,204.375107 
	C717.659851,180.920441 700.896179,160.977448 682.432556,142.392029 
	C669.956543,129.833710 656.269531,118.733635 641.238037,109.285118 
	C627.696716,100.773338 613.833618,92.965027 598.979309,86.925156 
	C589.415405,83.036392 579.742981,79.543121 569.878052,76.498100 
	C553.133545,71.329536 535.970825,67.586937 518.609863,66.615295 
	C492.103210,65.131805 465.742859,66.461716 439.419342,71.976227 
	C410.240417,78.088921 382.979706,88.044228 357.530792,103.401810 
	C345.039276,110.940025 332.948151,119.133759 321.742065,128.352737 
	C309.953125,138.051193 299.083344,148.862747 289.175354,160.639877 
	C273.228424,179.595123 259.604279,200.000763 249.058228,222.384583 
	C241.466049,238.498840 235.513016,255.182053 231.789902,272.720459 
	C227.987213,290.633759 224.914307,308.623779 224.389816,326.900574 
	C223.764725,348.682068 224.844818,370.343231 229.971741,391.743286 
	C233.456787,406.290070 236.541870,420.966278 242.371979,434.730316 
	C252.798233,459.345184 265.569092,482.675446 282.844696,503.320892 
	C284.760468,505.610382 286.395599,506.401672 289.487946,506.315918 
	C295.064087,506.161285 300.292053,504.186462 305.856201,503.700073 
	C306.923492,498.130524 306.878265,498.450653 312.578217,499.255951 
	C315.226379,499.630127 317.171509,500.823914 318.998444,502.266113 
	C322.152466,504.756012 324.887177,503.610657 327.704803,501.899689 
	C329.247375,500.962952 329.358154,497.209625 332.516388,499.475952 
	C336.111023,494.905823 340.717316,497.371887 344.855865,497.958649 
	C352.635254,499.061584 353.206268,498.987366 354.578430,493.821045 
	C362.346008,491.784088 369.961212,492.342773 377.922333,493.280396 
	C378.067535,487.162048 383.981506,488.708344 387.547241,488.136322 
	C392.165619,487.395386 397.219635,488.376343 401.665100,486.597778 
	C407.147156,484.404419 415.054016,487.145020 417.210724,478.661499 
	C423.425446,481.006958 428.677002,481.133728 433.235291,476.251709 
	C434.395111,475.009521 436.389893,474.480225 438.355774,474.677551 
	C444.526367,475.297028 450.679352,473.775391 456.539581,472.773926 
	C464.275238,471.451935 471.480103,467.080353 479.712555,470.470367 
	C480.314545,470.718292 481.278809,470.067444 482.079926,469.854248 
	C483.953156,469.355774 485.859406,469.413391 487.259705,470.785828 
	C488.746857,472.243286 490.460754,472.405396 492.289520,472.344055 
	C503.930328,471.953522 514.815247,469.570740 523.197998,460.578949 
	C523.853394,459.875885 524.772827,458.943909 525.579163,458.934357 
	C530.605347,458.874786 532.449219,451.253540 538.420898,453.580933 
	C538.498779,453.611298 538.793640,453.078156 538.990784,452.810638 
	C540.687744,450.507690 543.233826,448.895996 544.683533,445.568878 
	C534.073792,448.083527 524.441589,453.658722 513.008240,451.584442 
	C527.306580,446.958405 536.767212,436.131653 546.722107,425.770966 
	C544.476990,424.866608 547.074524,422.158020 545.598816,420.384521 
	C536.408875,420.638977 534.000549,430.306793 526.839478,433.515015 
	C519.831421,436.654602 512.998474,439.192291 505.291504,438.827179 
	C505.570648,437.510956 506.020111,436.813995 506.615051,436.278778 
	C511.769897,431.641296 518.064758,429.084412 524.396729,426.598053 
	C528.763733,424.883270 530.829773,420.130157 527.765991,418.305634 
	C524.523804,416.374908 521.070801,413.008881 516.408875,416.104126 
	C514.335754,417.480560 511.607391,418.558746 509.313629,415.814362 
	C510.315216,412.678772 514.113098,412.435425 514.855652,408.933472 
	C516.885193,399.362213 522.522217,392.749695 532.113220,389.487030 
	C537.046875,387.808655 544.167358,388.359772 544.276123,380.150421 
	C544.277954,380.013611 544.428101,379.809875 544.558899,379.753815 
	C547.960266,378.295044 546.918213,375.980408 545.978394,373.494049 
	C537.147644,375.272247 530.350525,380.958344 522.406067,384.096893 
	C520.147461,384.989136 518.275452,386.862854 516.231506,388.294189 
	C514.328064,389.627197 512.398254,390.768768 510.140503,391.588013 
	C502.506897,394.357849 494.787506,394.474884 487.029877,392.726501 
	C484.203613,392.089539 482.072113,392.658081 480.289612,394.642487 
	C478.437134,396.704742 479.863403,398.725159 480.791199,400.643616 
	C482.824890,404.848694 484.775208,409.084076 485.860474,413.652313 
	C487.028687,418.569672 484.517303,426.634003 480.434784,428.752075 
	C476.799469,430.638184 475.466461,433.212067 475.167694,437.019226 
	C474.990234,439.280701 474.553223,442.623962 472.111603,442.820099 
	C465.465118,443.353973 462.283325,448.948120 457.159088,451.159180 
	C458.267029,455.574097 461.917816,455.191223 465.700165,456.363892 
	C460.433899,458.865387 456.406860,457.854584 452.962830,455.665649 
	C446.480530,451.545654 441.078735,446.123688 437.163269,439.469421 
	C432.172791,430.988190 423.103149,428.951996 415.251862,429.105377 
	C404.279846,429.319763 393.059753,430.915314 382.175385,433.061646 
	C356.705933,438.084106 331.206604,442.580231 305.184692,443.240784 
	C291.032776,443.600006 276.864319,442.866638 262.717163,443.929321 
	C260.010742,444.132660 257.236389,443.742432 254.655228,441.998383 
	C293.051605,439.907959 331.869415,443.066742 370.491699,432.001892 
	C360.639038,428.250336 351.515747,425.371704 342.141815,423.469421 
	C336.821442,422.389771 333.993652,419.412109 332.819519,414.392395 
	C330.927246,406.302429 329.088745,398.199127 327.108337,390.130707 
	C319.265656,358.178436 311.396057,326.232697 303.487305,294.296722 
	C302.045776,288.475677 302.691071,287.520844 308.782837,287.676025 
	C310.432526,287.718018 312.083344,288.005463 313.718597,288.272278 
	C318.239655,289.009827 322.752777,289.796021 327.490021,290.600525 
	C326.919312,288.885132 325.661072,289.240631 324.818054,289.075256 
	C315.404724,287.228516 316.169312,285.612610 314.664246,277.463654 
	C314.363556,275.835510 313.066010,273.868774 315.221924,272.451324 
	C317.093109,271.221100 318.737885,272.363281 320.400604,273.047913 
	C328.397217,276.340607 336.049591,280.605438 344.572815,282.438751 
	C362.603302,286.316986 380.693939,289.914734 398.741638,293.714172 
	C412.723999,296.657776 427.003052,298.713562 440.193542,304.451141 
	C460.221680,313.163025 476.395966,326.704193 488.640533,344.898560 
	C491.844574,349.659393 492.899780,349.683685 496.169373,344.984955 
	C501.632843,337.133484 508.005493,330.185303 515.180237,323.884735 
	C528.642029,312.063110 543.480774,302.742920 561.169312,298.813049 
	C577.070557,295.280273 593.000488,291.817566 609.023682,288.907471 
	C628.715393,285.331085 648.240540,281.416443 666.270142,272.220398 
	C667.588318,271.548065 669.069214,271.165527 670.973145,271.773285 
	C671.891296,276.241058 670.483704,280.485748 668.858948,284.620117 
	C668.097412,286.557709 666.252747,287.870453 664.185059,287.988586 
	C658.797424,288.296387 653.782471,290.192932 648.598755,291.337769 
	C637.466431,293.796326 626.176453,295.687225 615.491272,299.909119 
	C615.990356,300.031403 616.466492,300.028961 616.909607,299.906677 
	C635.693970,294.723785 654.782349,291.025574 674.036377,288.109650 
	C681.612732,286.962280 683.124268,288.501556 681.312134,295.953918 
	C674.949280,322.122040 668.565918,348.285187 661.983276,375.251648 
M663.540894,544.023987 
	C676.950073,533.584900 688.184631,520.999084 699.845337,508.107300 
	C696.344116,506.308075 693.231995,505.841461 690.160339,505.304047 
	C663.333801,500.610321 636.512207,495.887146 609.670288,491.282990 
	C591.148376,488.105927 572.463867,486.185760 553.786255,484.177490 
	C542.600952,482.974792 531.531921,482.802338 520.553589,485.429871 
	C514.470703,486.885742 508.686188,486.070374 502.918823,483.987335 
	C480.379272,475.846405 457.703949,478.108917 436.708710,487.427032 
	C410.743774,498.950714 383.583954,504.233154 355.973846,508.245300 
	C342.704132,510.173553 329.428650,512.404236 315.929657,512.824646 
	C308.733826,513.048706 301.578552,514.576172 293.564087,515.625427 
	C296.006592,518.429199 297.782410,520.813477 299.902161,522.837646 
	C306.884857,529.505371 313.650543,536.460754 321.110992,542.557312 
	C351.892090,567.711426 385.892059,586.681519 424.855560,596.190979 
	C449.830750,602.286377 474.971375,606.040100 500.760834,604.928101 
	C517.529907,604.205017 534.226257,603.376953 550.611084,599.181702 
	C567.842651,594.769653 584.891357,590.159424 601.244385,582.775024 
	C623.583618,572.687500 644.197205,560.123291 663.540894,544.023987 
M512.261230,372.931274 
	C507.797699,365.856873 503.465912,358.613464 493.114136,358.755554 
	C491.618073,363.507629 481.287689,363.126404 485.204498,372.735840 
	C480.302673,368.344025 476.532959,370.624634 472.897644,373.412231 
	C471.310638,374.629211 468.445251,375.577515 470.227844,378.321594 
	C471.983215,381.023834 474.322845,380.958191 477.064941,379.047729 
	C479.591522,377.287476 481.699677,374.562164 485.500916,374.089539 
	C484.800934,379.694122 478.984161,380.716858 476.838806,384.976044 
	C486.785828,387.024963 489.119629,378.957672 493.192139,372.641998 
	C495.323853,376.181091 496.979156,378.976776 498.681152,381.743713 
	C501.156281,385.767548 505.211578,386.664246 509.426544,386.633026 
	C511.794098,386.615540 514.866882,385.166901 514.225037,382.696777 
	C513.430603,379.639313 514.023804,376.390320 512.261230,372.931274 
M472.279053,395.101837 
	C470.845978,390.874908 466.414764,388.873413 464.791168,384.483337 
	C463.911316,382.104340 460.702698,379.220154 457.024445,380.809509 
	C453.327515,382.406952 452.910278,386.180634 453.604645,389.357269 
	C455.433929,397.725677 460.139343,404.869049 464.280396,413.527466 
	C465.025238,405.339539 467.347595,403.279572 472.005829,405.491302 
	C471.863312,408.878632 466.143555,409.523376 467.579956,413.108826 
	C468.738220,415.999908 466.789551,419.894012 470.237000,422.027985 
	C473.313202,420.023712 475.387146,416.516205 479.611389,417.173615 
	C479.681519,419.894501 476.032135,419.789886 476.153320,422.349945 
	C480.861176,421.464386 482.594482,418.063660 480.114899,414.462616 
	C478.176422,411.647430 475.948151,409.018738 475.434204,406.089355 
	C476.026947,404.218536 478.131500,405.909424 478.142548,403.861328 
	C476.301910,401.206665 473.873016,398.856354 472.279053,395.101837 
M458.862671,422.039612 
	C460.259033,421.313049 462.334686,422.230103 463.404083,419.851105 
	C460.151672,412.529266 456.489136,405.084015 451.660858,398.359436 
	C449.139374,394.847687 444.767578,396.744232 441.573212,397.295837 
	C439.367126,397.676819 438.735107,401.314880 439.542664,403.824921 
	C441.381836,409.541138 444.067230,414.925537 447.703186,419.694397 
	C448.992706,421.385712 449.883850,422.903015 450.654694,424.943573 
	C452.390472,429.538483 455.025452,434.232422 459.010345,436.959229 
	C461.579742,438.717407 462.939026,433.637604 465.556763,432.676208 
	C465.861328,432.564392 466.198517,432.388550 466.388580,432.141083 
	C468.863556,428.918060 465.857269,426.908539 464.476074,424.783112 
	C462.807159,422.214905 461.121765,423.936005 459.662994,425.440063 
	C458.381866,426.761047 457.980682,429.240631 455.067871,428.813751 
	C454.246704,425.728302 455.816193,423.869202 458.862671,422.039612 
M446.558075,425.884979 
	C441.511047,420.285065 440.567810,411.874542 433.838837,407.391754 
	C432.572327,406.548065 432.291840,404.037384 430.158630,404.691925 
	C427.907318,405.382721 426.899872,407.493988 426.447845,409.607758 
	C425.998779,411.707703 426.137421,413.876099 427.031738,415.948425 
	C428.275177,418.829712 429.053925,421.973816 430.662781,424.621918 
	C433.778046,429.749420 436.900055,434.947205 441.927490,439.951843 
	C443.289154,435.630676 446.275238,433.846527 449.200409,432.144073 
	C449.107880,429.811584 447.905304,428.205963 446.558075,425.884979 
M546.894775,406.294922 
	C547.502319,404.964783 547.783203,403.245911 548.794373,402.396118 
	C550.290344,401.138947 551.931030,400.193085 550.452454,398.108856 
	C549.151611,396.275146 547.062988,395.797272 545.153442,396.880981 
	C540.710815,399.402313 536.257874,401.960693 532.108215,404.923035 
	C529.470764,406.805847 530.269592,408.511078 533.142883,410.002777 
	C538.645264,412.859436 542.549072,410.183319 546.894775,406.294922 
M529.796326,372.440002 
	C527.767639,367.948273 525.220947,363.697876 524.107910,358.906372 
	C520.180481,359.056183 517.077087,359.819427 514.342834,361.956757 
	C512.779419,363.178833 511.601929,364.481659 512.271606,366.563110 
	C512.998779,368.823547 514.813904,370.680084 516.984131,370.314850 
	C520.554688,369.713959 522.811951,369.969421 524.009460,373.955750 
	C524.549988,375.754913 526.997314,375.905304 528.841370,375.739624 
	C530.477478,375.592590 530.416504,374.345184 529.796326,372.440002 
M456.262482,442.839783 
	C454.958313,440.093658 453.442993,437.193390 450.119629,437.036804 
	C447.934662,436.933868 446.352844,439.045471 445.474670,441.043945 
	C443.372253,445.828461 447.292664,447.271759 450.124481,449.401550 
	C451.971863,446.337646 451.980286,446.372925 455.970245,445.419403 
	C457.175751,445.131287 456.520874,444.139374 456.262482,442.839783 
M353.903870,295.724884 
	C346.457458,294.068909 339.011047,292.412933 331.564636,290.756927 
	C331.510773,291.016388 331.456879,291.275818 331.402985,291.535278 
	C341.317108,293.863312 351.231232,296.191345 361.145355,298.519409 
	C361.214722,298.215607 361.284119,297.911835 361.353485,297.608063 
	C359.124329,297.071167 356.895142,296.534302 353.903870,295.724884 
M381.434753,303.960907 
	C376.319305,301.633087 370.899323,300.393250 365.305969,299.758118 
	C370.550568,301.199005 375.795197,302.639893 381.434753,303.960907 
M584.333435,310.565796 
	C584.880310,310.259796 585.427185,309.953766 585.974060,309.647766 
	C581.785400,310.200897 577.952881,311.600250 574.517700,314.069641 
	C577.586304,312.948151 580.654907,311.826630 584.333435,310.565796 
z"/>
<path fill="#000000" opacity="1.000000" stroke="none" 
	d="
M423.317993,294.800262 
	C407.495392,290.575043 391.664795,288.434631 376.030640,285.307648 
	C360.209442,282.143280 344.618042,277.981354 329.355103,272.682190 
	C324.287689,270.922821 324.981537,266.374908 323.929901,262.755371 
	C326.216583,261.095764 327.990173,261.831940 329.602753,262.630463 
	C351.596375,273.521179 375.740631,276.082916 399.356018,280.671722 
	C414.240326,283.563904 429.218384,286.585907 443.047821,292.716064 
	C461.081207,300.709747 476.564240,312.471100 487.913574,329.046875 
	C492.225830,335.344940 492.774780,335.441498 497.187408,329.043091 
	C516.143555,301.556183 543.708191,288.752533 575.355713,282.657013 
	C595.416077,278.793243 615.457153,274.812775 635.437073,270.557190 
	C642.111023,269.135681 648.179443,265.726349 654.460144,263.061615 
	C656.389709,262.242950 658.287231,260.938538 660.531921,262.004761 
	C660.603699,270.679749 659.898193,271.833588 652.181274,274.497711 
	C634.197205,280.706390 615.518250,283.913513 596.881470,287.374573 
	C580.717468,290.376434 564.431335,292.971191 548.898926,298.696960 
	C527.849915,306.456360 510.723450,319.482300 497.127289,337.249481 
	C493.747833,341.665680 491.575439,341.933624 488.580261,337.940826 
	C472.045074,315.898407 450.350708,301.688202 423.317993,294.800262 
z"/>
<path fill="#000000" opacity="1.000000" stroke="none" 
	d="
M496.649597,156.194778 
	C494.232941,152.052322 495.076721,150.260788 499.118927,150.334122 
	C503.273773,150.409515 507.427643,150.592972 511.578857,150.793030 
	C513.570435,150.888992 515.949402,150.845062 516.082275,153.586578 
	C516.214478,156.314865 516.856140,159.662979 513.597168,161.030304 
	C511.491852,161.913605 509.946411,162.563278 510.443665,165.149643 
	C515.754333,165.735809 517.436523,168.445145 515.635254,173.357498 
	C515.188171,174.576813 514.610779,175.513565 513.226013,175.424377 
	C507.920898,175.082718 502.550781,175.738678 497.308594,174.545425 
	C494.714752,173.955002 492.630402,172.552475 494.769531,169.690002 
	C497.851196,165.566299 497.135834,161.023193 496.649597,156.194778 
z"/>
<path fill="#000000" opacity="1.000000" stroke="none" 
	d="
M354.279327,230.474792 
	C352.063904,224.614136 349.469086,219.725906 342.798462,218.618149 
	C340.367401,218.214447 340.056976,216.218277 341.233643,214.396225 
	C342.951477,211.736084 345.245270,210.055420 348.785065,210.995956 
	C351.772705,211.789749 354.681305,213.137024 358.226501,212.858047 
	C357.108673,210.510025 355.939301,208.982010 353.196777,209.976639 
	C351.970459,210.421387 350.904053,210.058411 350.247986,208.833832 
	C349.617706,207.657349 349.809174,206.480530 350.655426,205.594742 
	C352.139221,204.041626 353.646545,202.444809 355.399628,201.237457 
	C356.651642,200.375214 358.833740,200.238480 359.191467,202.026489 
	C360.337524,207.755219 365.316559,210.502228 368.388153,214.707230 
	C369.479797,216.201675 371.962738,217.227966 370.560791,219.676712 
	C369.109253,222.212112 366.684814,221.782013 364.346741,221.250366 
	C361.297760,220.557083 358.430908,219.036163 354.652649,219.219757 
	C356.376251,221.257233 357.054016,223.821365 360.514771,222.508530 
	C362.213531,221.864090 363.330414,223.153046 363.364502,224.983780 
	C363.423706,228.164368 357.773712,231.830933 354.279327,230.474792 
z"/>
<path fill="#000000" opacity="1.000000" stroke="none" 
	d="
M567.620850,126.596306 
	C564.846497,129.272507 562.108765,130.900894 558.414734,129.627258 
	C555.627869,128.666428 555.100342,130.945740 554.248962,132.720901 
	C553.469421,134.346313 552.311951,135.652863 550.367798,134.949585 
	C548.312744,134.206223 548.542542,132.322021 549.021973,130.699966 
	C551.187439,123.373856 553.242188,116.004784 555.740051,108.790833 
	C557.333008,104.190376 561.458435,102.525070 565.820007,104.035576 
	C569.803772,105.415245 571.425293,109.218819 569.661743,113.868591 
	C569.030396,115.533264 568.864441,116.969170 569.250916,118.657990 
	C569.870422,121.364189 569.411072,123.949554 567.620850,126.596306 
M558.544373,121.946587 
	C559.760925,123.805984 561.449219,124.541374 562.947266,122.656410 
	C564.378235,120.855942 562.796509,119.474174 561.251343,118.807671 
	C558.957642,117.818291 558.301208,119.243874 558.544373,121.946587 
z"/>
<path fill="#000000" opacity="1.000000" stroke="none" 
	d="
M552.965454,157.768890 
	C559.802917,159.477585 561.486694,162.171738 559.577881,168.138382 
	C559.050476,169.786987 558.816284,171.287552 559.185364,172.980438 
	C560.547241,179.228394 554.783142,186.163269 548.375244,183.780334 
	C545.519897,182.718506 545.058289,184.983902 544.177612,186.725281 
	C543.375488,188.311554 542.246216,189.673325 540.288208,188.933868 
	C538.220276,188.152893 538.569336,186.249054 539.042053,184.661423 
	C541.173035,177.504059 543.358887,170.362106 545.621887,163.245392 
	C546.676270,159.929306 548.948792,157.951447 552.965454,157.768890 
M551.885437,177.579788 
	C555.611694,173.313873 551.468079,173.619232 549.106873,172.392532 
	C547.941528,175.292679 547.913696,177.213959 551.885437,177.579788 
z"/>
<path fill="#000000" opacity="1.000000" stroke="none" 
	d="
M599.827332,125.871346 
	C603.633789,121.097633 607.580872,120.211357 611.516235,122.971161 
	C614.898743,125.343277 615.229187,128.639999 612.437256,133.426514 
	C611.834045,134.460693 611.492615,135.407410 611.456421,136.643066 
	C611.197144,145.496689 606.130371,148.771866 598.048523,145.417709 
	C597.613342,145.237106 597.119202,145.198792 596.747253,145.115463 
	C596.488342,145.256821 596.319092,145.310272 596.201416,145.419342 
	C594.364136,147.122070 593.765747,151.835159 590.182434,149.427094 
	C586.910339,147.228165 590.261475,144.357513 591.369202,142.060257 
	C593.958984,136.689346 596.862854,131.469864 599.827332,125.871346 
M603.759033,135.825043 
	C601.960632,134.941956 600.893494,135.742905 600.435852,137.441269 
	C600.056274,138.850143 600.612854,140.044693 601.897705,140.777618 
	C602.866882,141.330460 603.850159,141.101303 604.614441,140.375626 
	C606.170837,138.897675 605.782227,137.486343 603.759033,135.825043 
z"/>
<path fill="#000000" opacity="1.000000" stroke="none" 
	d="
M686.965576,184.333267 
	C689.579407,189.362610 688.060974,193.412979 684.882446,196.969360 
	C681.221558,201.065475 676.862305,204.122498 670.993591,203.123306 
	C667.851990,202.588409 665.661133,200.445618 664.846375,197.284607 
	C663.511292,192.104752 666.936401,185.906693 672.822205,182.587021 
	C678.264893,179.517258 682.542114,179.950256 686.965576,184.333267 
M677.563049,187.537628 
	C677.948547,189.612625 679.017761,191.020172 681.260071,191.405334 
	C682.607605,190.307480 683.090393,188.984497 682.092529,187.578506 
	C680.981262,186.012924 679.428223,185.981750 677.563049,187.537628 
M670.323792,194.148239 
	C670.538879,198.504593 672.585205,198.004059 676.404907,195.984695 
	C673.703918,195.007919 674.123230,190.300797 670.323792,194.148239 
z"/>
<path fill="#000000" opacity="1.000000" stroke="none" 
	d="
M445.915405,107.925140 
	C447.244751,104.045547 450.503571,104.283615 453.098328,104.547165 
	C455.472595,104.788322 454.881409,107.686821 455.537537,109.474121 
	C456.525421,112.165230 455.869446,115.324341 458.746368,117.550476 
	C460.748138,119.099373 459.772095,121.258553 457.382507,122.107849 
	C455.512878,122.772346 453.492157,123.000595 451.593811,123.598183 
	C449.143402,124.369576 446.844482,125.317734 447.241089,128.681122 
	C447.420044,130.198914 447.172119,131.804764 445.182007,132.088730 
	C443.078430,132.388840 442.147064,131.042252 441.751556,129.265289 
	C440.920715,125.532303 440.277069,121.754776 439.349884,118.047218 
	C438.782196,115.777306 439.156525,112.903793 435.886292,112.026611 
	C434.834930,111.744591 434.603333,110.460510 434.976013,109.466522 
	C435.732239,107.449638 437.654327,107.124397 439.450775,106.830269 
	C440.965759,106.582230 442.626099,106.605431 443.156036,108.457596 
	C443.748901,110.529892 443.957733,112.712067 444.550812,114.784294 
	C444.977997,116.277031 444.892242,118.338226 447.132721,118.563438 
	C448.618500,118.712791 449.761871,117.816261 450.297394,116.547661 
	C451.046509,114.773048 450.861694,112.961227 449.592285,111.389145 
	C448.572845,110.126656 446.291260,110.364357 445.915405,107.925140 
z"/>
<path fill="#000000" opacity="1.000000" stroke="none" 
	d="
M478.724487,115.424469 
	C478.068146,119.923553 473.711670,122.130234 468.162384,121.216377 
	C463.999786,120.530876 462.643677,117.544708 462.000549,113.600906 
	C461.040588,107.714264 464.263092,103.467178 466.119507,98.654320 
	C466.566315,97.495819 467.719543,96.566292 468.666595,95.654785 
	C469.973846,94.396606 471.517883,92.729530 473.265533,94.663345 
	C474.811371,96.373825 472.962189,97.627007 471.954590,98.860374 
	C471.443329,99.486160 470.884705,100.073250 470.348328,100.676880 
	C471.265503,102.169464 472.535034,101.698570 473.519409,101.378311 
	C475.412964,100.762299 476.903107,101.149429 477.692535,102.911324 
	C478.593872,104.922981 479.144592,107.474655 477.350647,108.944183 
	C474.810272,111.025215 473.303986,114.488495 469.431305,114.897522 
	C472.568329,115.675011 475.537415,112.370293 478.724487,115.424469 
z"/>
<path fill="#000000" opacity="1.000000" stroke="none" 
	d="
M696.098450,207.074417 
	C698.757507,212.430832 698.303589,215.418015 693.857605,218.746964 
	C689.869080,221.733398 685.673584,224.445923 681.534241,227.227142 
	C679.924133,228.309021 678.088257,229.060486 676.766174,226.963867 
	C675.486389,224.934509 676.862488,223.508865 678.433167,222.382889 
	C681.810486,219.961761 685.225098,217.592636 688.629456,215.209320 
	C689.967957,214.272232 691.522339,213.506866 691.519043,211.199097 
	C687.917419,209.465530 685.630554,210.804016 684.310242,214.248169 
	C683.657837,215.950150 682.795044,217.729828 680.875366,216.884094 
	C678.009460,215.621521 676.303589,212.944046 675.991028,209.862366 
	C675.787537,207.856262 677.443359,207.078476 679.416809,207.318237 
	C682.492981,207.691895 684.552612,205.839523 685.961487,203.628677 
	C689.003479,198.854996 689.549194,198.717041 692.936523,203.240738 
	C693.434509,203.905731 693.886597,204.605133 694.783569,205.748566 
	C695.504395,206.497147 695.801392,206.785782 696.098450,207.074417 
z"/>
<path fill="#000000" opacity="1.000000" stroke="none" 
	d="
M519.953735,128.945099 
	C516.067200,125.307236 518.059204,121.071442 518.226135,117.118202 
	C518.356262,114.036163 519.478821,110.966217 517.827087,107.198723 
	C513.983398,108.938156 513.482483,111.589279 515.114258,114.704407 
	C516.085449,116.558441 516.859924,118.271072 514.790527,119.403770 
	C511.985107,120.939323 508.873230,120.688988 506.313568,118.775391 
	C504.403992,117.347786 505.295563,115.677933 506.662567,114.081284 
	C508.775787,111.613068 509.388916,109.052673 507.355530,105.952156 
	C505.369385,102.923645 507.020264,101.365082 510.263489,101.129562 
	C510.582825,101.106369 510.912109,101.290207 511.240051,101.304924 
	C525.640686,101.951241 524.461426,102.628052 524.247009,116.605331 
	C524.201294,119.582649 523.596985,122.549706 523.286316,125.525276 
	C523.094299,127.363274 522.360046,128.699448 519.953735,128.945099 
z"/>
<path fill="#000000" opacity="1.000000" stroke="none" 
	d="
M718.766357,248.474670 
	C720.653748,254.264526 719.688660,256.967773 714.774048,259.378845 
	C710.446350,261.502014 705.988647,263.363495 701.564514,265.285614 
	C699.720581,266.086700 697.593201,267.094635 696.359070,264.590210 
	C695.083496,262.001740 697.255554,261.050293 699.084290,260.220306 
	C702.870361,258.502045 706.736328,256.957245 710.496399,255.185928 
	C712.011292,254.472260 714.570557,253.832123 713.075317,251.393066 
	C711.911194,249.493942 709.830261,250.272247 708.140503,251.148651 
	C707.567078,251.446106 707.029602,251.880707 706.589966,252.357941 
	C702.608704,256.679565 701.048767,256.298187 699.040771,250.481110 
	C697.714111,246.637909 698.903931,245.112839 702.871521,245.976074 
	C705.738342,246.599838 707.766663,245.309219 709.423584,243.487061 
	C713.305420,239.218079 714.209534,239.298859 716.700867,244.632385 
	C717.261414,245.832397 717.940247,246.977158 718.766357,248.474670 
z"/>
<path fill="#000000" opacity="1.000000" stroke="none" 
	d="
M428.066071,116.854797 
	C425.810730,115.254745 422.630157,114.063622 425.216217,111.038162 
	C427.425110,108.453972 429.877625,110.465332 431.701294,112.115250 
	C434.658844,114.791054 436.217529,118.266655 436.277710,122.300621 
	C436.329285,125.757416 434.577606,128.506683 431.278961,128.772583 
	C426.654663,129.145340 421.552032,134.642578 417.313477,128.173096 
	C414.731262,124.231720 413.691254,119.920570 415.802094,115.382736 
	C416.691467,113.470802 418.238068,111.753929 420.458344,112.551476 
	C423.081665,113.493813 422.251434,115.686562 421.355286,117.590012 
	C420.198486,120.046936 420.646545,122.284599 422.128113,124.673164 
	C423.754608,122.342148 420.669434,118.776413 424.412628,117.548241 
	C428.250275,116.289078 427.692993,121.014458 430.256226,122.114151 
	C430.587952,119.869881 429.468536,118.475693 428.066071,116.854797 
z"/>
<path fill="#000000" opacity="1.000000" stroke="none" 
	d="
M342.379761,174.583771 
	C340.739319,172.468002 339.238159,170.691086 337.931427,168.781158 
	C334.715302,164.080551 335.402252,158.814377 339.567413,155.480301 
	C343.340210,152.460312 349.550385,152.876419 352.704926,156.360565 
	C356.345612,160.381622 356.253937,166.381042 352.458984,170.280914 
	C351.555969,171.208908 350.555267,172.041855 349.753143,172.777603 
	C349.648285,174.375259 350.588623,175.184265 351.200897,176.135635 
	C352.250122,177.765884 353.157501,179.633179 351.180298,180.926941 
	C349.383057,182.102982 347.732239,180.924149 346.465485,179.408203 
	C345.191132,177.883118 343.894409,176.376694 342.379761,174.583771 
M347.629852,159.778091 
	C345.124695,158.767227 343.088806,159.214676 341.895233,161.797348 
	C341.055725,163.613831 341.955353,165.065826 343.364014,166.060349 
	C344.998688,167.214447 346.852356,167.171600 348.352783,165.787598 
	C350.334503,163.959625 349.927002,162.024307 347.629852,159.778091 
z"/>
<path fill="#000000" opacity="1.000000" stroke="none" 
	d="
M371.578339,189.903320 
	C371.363678,191.690918 371.137817,193.135254 370.840912,195.033844 
	C374.637909,193.661835 378.153137,193.043991 381.656647,194.871155 
	C386.007721,197.140335 387.890869,202.276642 385.947723,206.825073 
	C383.716400,212.047943 377.411194,215.119324 372.389221,213.429672 
	C367.447296,211.766983 364.876953,206.938675 366.356873,201.924881 
	C367.038452,199.615631 368.109955,197.670929 366.536011,194.970230 
	C365.458740,193.121719 366.835815,190.287354 368.107239,188.421692 
	C369.866150,185.840729 371.029053,187.252457 371.578339,189.903320 
M374.576324,200.015762 
	C372.260559,201.502258 370.738647,203.451614 372.223724,206.203796 
	C373.379578,208.345810 375.584839,208.161255 377.529572,207.437210 
	C379.778198,206.600021 381.118134,204.820282 380.613434,202.381836 
	C380.004150,199.438049 377.821686,198.997849 374.576324,200.015762 
z"/>
<path fill="#000000" opacity="1.000000" stroke="none" 
	d="
M617.167908,213.175964 
	C617.289795,215.291122 617.323486,217.082016 615.206299,217.564484 
	C613.626709,217.924438 611.945862,217.156479 611.341248,215.861053 
	C610.339539,213.714890 608.622986,213.327789 606.692383,212.733994 
	C602.674927,211.498291 600.912659,208.372787 600.904175,204.388458 
	C600.894775,199.985779 604.851562,195.404160 609.251770,194.351608 
	C613.476440,193.341049 616.341309,195.140610 618.058960,198.916733 
	C618.640076,200.194244 619.002930,201.423431 620.801331,201.073441 
	C622.284729,200.784744 623.511780,201.289978 623.989929,202.758667 
	C624.547668,204.471451 623.389343,205.559784 622.208740,206.532532 
	C620.097900,208.271713 617.080017,209.269135 617.167908,213.175964 
M611.049683,206.456451 
	C613.127319,205.151321 613.126343,203.192505 612.349854,201.289276 
	C611.833801,200.024353 610.471130,200.074417 609.366577,200.637955 
	C607.812073,201.431000 606.739563,202.805710 606.769592,204.524826 
	C606.810181,206.854065 608.638245,206.801331 611.049683,206.456451 
z"/>
<path fill="#000000" opacity="1.000000" stroke="none" 
	d="
M433.028748,183.239700 
	C427.396667,179.458694 425.466400,174.361679 427.551819,169.572495 
	C428.762848,166.791275 430.741821,164.875290 433.868652,164.670639 
	C436.624634,164.490250 439.290802,165.516418 441.702332,162.518463 
	C443.054169,160.837906 445.174530,162.980896 445.132782,165.021271 
	C445.045288,169.299423 445.275909,173.058167 449.353790,175.904343 
	C451.319763,177.276459 449.731079,180.005890 447.928925,179.911789 
	C443.986237,179.705933 441.292053,181.925919 438.197052,183.486755 
	C436.598358,184.292984 434.976349,184.045303 433.028748,183.239700 
M432.590393,172.830338 
	C432.863251,175.031601 433.152802,177.264038 436.003571,177.544754 
	C437.156738,177.658295 437.806274,176.788727 438.232666,175.846512 
	C439.077057,173.980713 438.185669,172.644730 436.777679,171.526749 
	C435.208038,170.280334 433.781799,170.063568 432.590393,172.830338 
z"/>
<path fill="#000000" opacity="1.000000" stroke="none" 
	d="
M708.527527,228.481964 
	C709.410461,229.926270 710.124329,231.051849 710.726074,232.234497 
	C711.422424,233.603210 711.951904,235.085968 710.734497,236.408264 
	C709.498718,237.750549 708.119324,237.206467 706.637939,236.610092 
	C702.154724,234.805237 700.853210,235.636520 700.470642,240.575867 
	C700.354065,242.081223 700.749512,243.724716 698.805603,244.230515 
	C696.807495,244.750427 695.048950,243.386597 694.997192,241.891907 
	C694.845764,237.519836 691.219666,235.409302 689.445618,232.140717 
	C687.048584,227.724579 687.671082,226.902649 692.913147,226.363220 
	C695.536499,226.093277 698.174316,225.218506 699.330811,222.408875 
	C701.037354,218.262619 703.113647,219.390991 705.008423,222.078217 
	C706.333008,223.956741 707.224182,226.140839 708.527527,228.481964 
z"/>
<path fill="#000000" opacity="1.000000" stroke="none" 
	d="
M382.752136,148.532684 
	C375.117706,147.604507 370.875000,141.779266 372.754944,135.354874 
	C373.565887,132.583511 375.325348,130.572006 378.138000,130.005478 
	C380.673401,129.494797 382.929749,129.666977 384.746094,126.770386 
	C386.141296,124.545395 388.601837,126.519737 388.899567,128.694565 
	C389.450714,132.720871 390.372955,135.986328 394.767395,137.597763 
	C396.954590,138.399811 396.686554,141.584122 394.876709,141.840042 
	C389.912964,142.541931 387.980316,148.038269 382.752136,148.532684 
M381.573730,142.649948 
	C384.511719,142.344147 385.219330,140.416412 384.068634,138.199966 
	C383.217987,136.561478 381.235321,134.762924 379.297119,136.168274 
	C377.156891,137.720093 378.215912,139.943680 379.672607,141.700089 
	C379.967896,142.056152 380.473938,142.237411 381.573730,142.649948 
z"/>
<path fill="#000000" opacity="1.000000" stroke="none" 
	d="
M273.207458,264.249084 
	C265.457642,259.178467 265.195007,253.957397 272.099518,248.229416 
	C272.405670,246.511734 270.209778,244.192841 272.911011,242.996124 
	C275.150482,242.003998 276.654022,243.750626 278.078735,245.128479 
	C280.124634,247.107025 282.262390,248.351593 285.223175,247.073944 
	C286.478363,246.532333 287.978607,246.451111 288.827118,247.787262 
	C289.706299,249.171631 289.567017,250.916183 288.439392,251.967499 
	C286.509399,253.766846 286.498016,255.928543 286.243896,258.267151 
	C285.622711,263.984253 280.645233,266.305756 273.207458,264.249084 
M279.915283,258.560059 
	C281.297729,255.989807 279.878845,254.471832 277.743866,253.601730 
	C276.320282,253.021545 274.809937,253.635010 273.775696,254.842117 
	C273.055573,255.682617 273.155914,256.765381 273.804077,257.564026 
	C275.276428,259.378204 277.103424,260.195801 279.915283,258.560059 
z"/>
<path fill="#000000" opacity="1.000000" stroke="none" 
	d="
M629.288269,143.215103 
	C629.783936,148.467712 627.581787,153.120255 628.864319,158.050140 
	C629.527649,160.599991 627.398376,161.513870 625.007751,160.842178 
	C620.777649,159.653671 619.917358,156.978378 622.212769,152.844315 
	C622.846863,151.702271 623.155823,150.361221 622.029846,149.248245 
	C620.752808,148.989822 620.079102,149.746658 619.541687,150.607468 
	C616.907959,154.825867 615.324036,155.155807 611.630554,152.262512 
	C610.396484,151.295822 609.342285,150.258591 609.648376,148.526627 
	C609.955139,146.790451 611.413269,146.868790 612.719116,146.584946 
	C616.227173,145.822479 618.977417,143.531372 621.951111,141.731567 
	C624.261719,140.333145 624.056519,138.111160 623.063354,136.000168 
	C622.363892,134.513382 621.026611,133.148209 622.399902,131.477829 
	C623.239136,130.457031 624.561096,130.524338 625.646606,130.983948 
	C627.632751,131.824844 629.894592,132.688309 629.917480,135.307541 
	C629.939026,137.788208 629.520874,140.272705 629.288269,143.215103 
z"/>
<path fill="#000000" opacity="1.000000" stroke="none" 
	d="
M633.553711,223.601318 
	C633.478699,222.279770 633.609253,221.299332 633.631897,220.316391 
	C633.702454,217.252563 631.905457,216.062866 629.166504,216.429169 
	C626.492615,216.786743 624.882202,218.509918 625.462769,221.304932 
	C625.825317,223.050079 626.891113,224.643692 627.596252,226.324219 
	C628.945618,229.539993 627.673706,231.846298 624.873047,233.407013 
	C621.897583,235.065186 619.168457,233.993668 617.308533,231.641983 
	C614.604614,228.223221 618.061035,227.222641 620.370972,226.037949 
	C618.854065,219.991272 619.294800,214.788925 625.173950,211.539154 
	C630.385986,208.658096 640.266235,212.921707 641.535156,218.654922 
	C642.046265,220.964157 640.325134,222.367096 638.843140,223.654282 
	C637.302429,224.992523 635.545654,226.192780 633.553711,223.601318 
z"/>
<path fill="#000000" opacity="1.000000" stroke="none" 
	d="
M461.634186,164.394348 
	C458.521637,164.327621 456.710358,165.675430 456.580170,168.418640 
	C456.449127,171.180161 458.205444,172.561783 460.897186,172.955658 
	C462.367889,173.170868 463.892120,173.470734 465.223877,174.092743 
	C468.089966,175.431396 468.904510,177.949982 467.999786,180.789551 
	C467.111053,183.578873 464.852814,185.564972 461.973694,185.018951 
	C457.679047,184.204514 458.992004,181.613556 461.250366,178.842316 
	C455.201996,178.403473 451.573944,175.338684 450.802002,169.479019 
	C449.794464,161.831024 458.808990,155.026749 466.091675,157.927231 
	C468.745728,158.984253 468.497314,161.696167 468.985535,163.889709 
	C469.293945,165.275589 468.860748,166.625229 467.392761,167.191528 
	C464.637451,168.254410 463.926483,165.102539 461.634186,164.394348 
z"/>
<path fill="#000000" opacity="1.000000" stroke="none" 
	d="
M321.165802,172.195435 
	C327.039825,167.904633 332.077454,167.724777 335.824402,171.408768 
	C339.238342,174.765350 339.425018,180.284241 336.270935,184.609253 
	C333.073273,188.993973 327.585632,190.492218 323.061340,188.215805 
	C317.437531,185.386169 316.559174,179.000702 321.165802,172.195435 
M325.513458,176.201645 
	C323.798737,178.444595 323.448425,180.775375 325.701355,182.768814 
	C327.583679,184.434341 329.462280,183.352203 330.960358,181.954102 
	C332.661713,180.366318 333.473419,178.236267 332.029755,176.212952 
	C330.422241,173.959976 328.203918,173.943604 325.513458,176.201645 
z"/>
<path fill="#000000" opacity="1.000000" stroke="none" 
	d="
M567.969116,172.582031 
	C570.110596,171.836624 571.906128,171.690643 573.733032,172.065262 
	C578.931213,173.131180 582.515442,177.500900 582.408447,182.627838 
	C582.305847,187.542603 579.229187,191.005432 574.315613,191.736374 
	C569.407288,192.466553 563.941956,189.388931 562.211609,184.920410 
	C560.280090,179.932037 562.015808,175.987961 567.969116,172.582031 
M576.546448,182.525650 
	C576.448669,180.734970 575.543335,179.431534 574.089233,178.462021 
	C571.685181,176.859055 569.654358,177.479858 568.130005,179.700531 
	C566.476196,182.109879 567.944824,183.893311 569.879333,185.023163 
	C572.482666,186.543610 574.952332,186.351807 576.546448,182.525650 
z"/>
<path fill="#000000" opacity="1.000000" stroke="none" 
	d="
M658.689453,166.983978 
	C660.608704,167.665802 662.284058,168.047836 663.633667,168.928894 
	C667.779968,171.635818 669.562927,177.363113 667.795959,181.647675 
	C666.191589,185.537964 661.508118,187.980087 657.181213,187.182602 
	C652.471985,186.314651 648.231628,181.431076 648.052673,176.669250 
	C647.880066,172.076721 650.794617,168.480957 655.843384,167.146591 
	C656.627014,166.939499 657.477234,166.984177 658.689453,166.983978 
M662.629395,176.760178 
	C661.718628,173.612381 659.520752,172.598007 656.510193,173.294403 
	C654.572754,173.742569 653.885742,175.300262 654.201904,177.127472 
	C654.641113,179.665619 656.169861,181.390884 658.820740,181.558304 
	C661.530151,181.729416 662.656616,180.050369 662.629395,176.760178 
z"/>
<path fill="#000000" opacity="1.000000" stroke="none" 
	d="
M522.275635,158.097321 
	C526.823914,157.923981 527.894958,160.106339 527.082214,163.812073 
	C526.691956,165.591614 526.400269,167.401688 526.209595,169.213257 
	C526.063721,170.598785 526.282837,172.077896 528.029297,172.215744 
	C529.662170,172.344620 530.306152,171.008316 530.572083,169.649170 
	C530.927673,167.831085 530.819885,166.119034 529.819153,164.369949 
	C528.074036,161.319778 529.768066,159.937012 532.688965,159.953094 
	C534.475525,159.962952 536.345459,160.447250 538.020325,161.114258 
	C540.034790,161.916489 541.114258,163.774475 539.192932,165.356094 
	C536.848572,167.285919 536.595764,169.766373 535.921326,172.331650 
	C534.714539,176.921417 531.062195,179.052887 526.387634,178.253448 
	C522.385498,177.569000 519.607666,173.886948 520.002258,169.448456 
	C520.234924,166.831528 521.018616,164.411301 519.321167,161.786179 
	C517.871216,159.543854 519.917664,158.620224 522.275635,158.097321 
z"/>
<path fill="#000000" opacity="1.000000" stroke="none" 
	d="
M369.358093,147.921387 
	C370.024323,152.102982 370.908661,155.712585 373.412903,158.864777 
	C374.810272,160.623734 375.177246,163.087463 372.715576,164.503510 
	C370.412079,165.828583 368.792877,164.102661 367.842743,162.352539 
	C364.731903,156.622375 359.226501,154.307297 353.687653,151.997818 
	C351.959717,151.277328 349.095703,151.374954 350.472382,148.346054 
	C351.550507,145.974045 353.746155,145.106308 356.356476,146.172379 
	C358.597260,147.087509 360.319397,149.257645 363.129578,149.033554 
	C364.335022,146.385269 362.337738,143.770020 363.280151,141.139053 
	C364.051392,138.985825 364.816101,136.619720 367.468109,137.075821 
	C370.466736,137.591507 369.908020,139.758102 369.163055,142.129181 
	C368.654480,143.748077 369.237488,145.709915 369.358093,147.921387 
z"/>
<path fill="#000000" opacity="1.000000" stroke="none" 
	d="
M288.066101,236.603470 
	C291.749664,236.242844 292.250519,234.735428 289.688507,232.640625 
	C288.056152,231.305954 286.240356,230.400345 283.731537,231.022537 
	C280.718628,231.769714 279.752136,229.813354 280.681335,227.177429 
	C281.279755,225.479767 282.258698,223.847366 283.363434,222.414124 
	C284.803741,220.545517 287.046509,220.533325 287.731720,222.654297 
	C288.701324,225.655624 291.060852,226.540253 293.246552,227.967926 
	C297.281281,230.603378 298.308380,234.247971 296.329163,238.303513 
	C294.328979,242.401962 290.468140,243.731598 285.798645,242.020599 
	C283.687042,241.246857 281.930298,239.299805 279.291565,240.173676 
	C277.997833,240.602112 276.518066,240.648041 275.814789,239.132858 
	C274.821259,236.992355 276.167175,235.301132 277.183380,233.597061 
	C278.059357,232.128174 279.352539,232.206070 280.654114,232.856995 
	C283.031799,234.046082 285.369202,235.315689 288.066101,236.603470 
z"/>
<path fill="#000000" opacity="1.000000" stroke="none" 
	d="
M321.713074,200.364029 
	C317.440582,205.883804 312.755310,207.531799 308.313843,205.337540 
	C303.921448,203.167526 301.853882,198.316910 303.332001,193.650024 
	C305.013550,188.340805 309.642853,185.219482 315.068176,185.736862 
	C321.683838,186.367752 324.666901,192.591568 321.713074,200.364029 
M315.484955,198.982285 
	C317.036713,197.374969 318.306305,195.647552 317.086792,193.305115 
	C316.332916,191.856995 315.010620,191.198624 313.385040,191.438614 
	C311.291412,191.747742 309.781158,192.904709 308.883148,194.845123 
	C308.095612,196.546890 308.463806,198.061050 309.664642,199.389145 
	C311.376770,201.282593 313.165161,200.659454 315.484955,198.982285 
z"/>
<path fill="#000000" opacity="1.000000" stroke="none" 
	d="
M391.550171,126.511017 
	C392.661072,121.713280 395.293365,120.653503 398.753235,123.190224 
	C400.847015,124.725349 402.271118,127.123772 405.001099,128.129562 
	C406.662354,125.613159 405.145233,123.737297 404.064392,121.762207 
	C403.215393,120.210732 402.763763,118.578316 404.664703,117.434250 
	C406.443268,116.363853 407.819702,117.345505 409.049835,118.577255 
	C412.609497,122.141541 412.467865,132.258698 408.827728,135.710587 
	C406.740936,137.689468 404.870422,136.761688 403.149567,135.208221 
	C399.623688,132.025391 396.293518,128.591339 391.550171,126.511017 
z"/>
<path fill="#000000" opacity="1.000000" stroke="none" 
	d="
M499.987549,101.385307 
	C502.834015,108.002274 501.693573,113.342705 496.646484,117.788177 
	C494.034241,120.089043 491.656799,120.171967 489.788147,116.728485 
	C487.672668,112.830193 486.489929,108.384560 482.664185,105.479401 
	C481.294708,104.439468 481.611816,102.599480 483.164062,101.679886 
	C485.345856,100.387337 487.577728,100.162415 489.293823,102.606293 
	C490.987396,105.017982 491.542603,108.138504 494.127808,110.413704 
	C496.499023,108.613770 495.587799,106.252754 495.525574,104.075890 
	C495.438568,101.031227 496.542511,99.553368 499.987549,101.385307 
z"/>
<path fill="#000000" opacity="1.000000" stroke="none" 
	d="
M293.772949,216.583588 
	C292.283813,218.294266 290.731964,218.824585 289.189301,217.545670 
	C287.662415,216.279800 287.965454,214.549103 288.914795,213.022644 
	C290.315674,210.770081 291.790863,208.561539 293.296692,206.377167 
	C294.295197,204.928772 295.597198,203.830627 297.481567,204.620361 
	C299.188110,205.335571 299.020569,206.754410 298.852112,208.388992 
	C298.428192,212.502670 301.458710,213.421219 304.485687,213.125717 
	C306.746246,212.905029 309.017303,211.732239 309.209045,215.141251 
	C309.384979,218.269333 307.478546,220.040161 304.323090,220.210587 
	C302.202118,220.325119 300.610535,218.952057 298.864319,218.028549 
	C297.342285,217.223618 296.181641,215.335953 293.772949,216.583588 
z"/>
<path fill="#000000" opacity="1.000000" stroke="none" 
	d="
M403.515808,197.381454 
	C399.426453,200.676575 396.536316,199.451767 394.260773,195.650864 
	C392.657837,192.973450 391.473663,190.343155 387.188690,191.027847 
	C384.589020,191.443283 384.024811,188.696686 385.689667,186.856796 
	C388.278290,183.995972 391.757904,182.280991 395.369568,180.969330 
	C396.548492,180.541168 397.660370,180.956558 398.404510,182.062302 
	C399.031158,182.993423 399.009796,183.942657 398.372009,184.837692 
	C394.998016,189.572891 397.589447,191.612030 401.976837,192.820419 
	C404.388550,193.484665 404.565094,195.049881 403.515808,197.381454 
z"/>
<path fill="#000000" opacity="1.000000" stroke="none" 
	d="
M585.107544,125.670349 
	C584.093201,128.522217 582.008118,130.690384 584.764038,133.656784 
	C586.229065,135.233734 584.741821,137.049423 582.396484,137.267197 
	C578.824036,137.598938 576.005127,134.014221 577.122925,130.177505 
	C577.999451,127.169182 579.373779,124.305077 580.541565,121.382782 
	C581.239380,119.636597 582.075867,117.681747 584.375732,118.417595 
	C586.932129,119.235519 586.407837,121.453308 585.895264,123.436707 
	C585.730286,124.075127 585.459595,124.686264 585.107544,125.670349 
z"/>
<path fill="#000000" opacity="1.000000" stroke="none" 
	d="
M591.839111,185.991699 
	C593.151611,183.997101 594.696838,182.824036 596.574158,184.136749 
	C598.477356,185.467651 597.509888,187.342072 596.759277,189.058655 
	C595.290771,192.417038 591.635071,195.081161 594.302368,199.709961 
	C595.267456,201.384659 593.062866,202.430435 591.140442,202.186203 
	C587.568542,201.732483 585.631104,197.913254 587.309326,194.099274 
	C588.503113,191.386246 590.186829,188.888809 591.839111,185.991699 
z"/>
<path fill="#000000" opacity="1.000000" stroke="none" 
	d="
M419.234375,182.943222 
	C421.105774,184.060898 423.922150,183.210068 424.016693,186.160294 
	C424.071472,187.869934 422.715546,188.711090 421.308197,189.405426 
	C419.020081,190.534286 416.967773,190.043427 415.455963,188.199402 
	C412.658478,184.787048 411.423431,180.575363 410.045898,176.477081 
	C409.550415,175.002945 410.322754,173.880157 411.713074,173.269897 
	C413.244171,172.597809 414.359650,173.332214 415.027771,174.614349 
	C416.410706,177.268158 417.657074,179.993134 419.234375,182.943222 
z"/>
<path fill="#000000" opacity="1.000000" stroke="none" 
	d="
M641.925537,169.135132 
	C640.589417,172.170837 638.484192,171.883972 636.521667,170.576294 
	C634.264099,169.072021 633.926941,166.539108 634.946594,164.319458 
	C636.691223,160.521423 639.540771,157.421951 642.502747,154.500122 
	C643.544739,153.472260 644.989807,153.430161 646.158081,154.364990 
	C647.388123,155.349319 647.371887,156.723846 646.539673,157.946411 
	C645.419189,159.592621 644.331482,161.333511 642.894592,162.674728 
	C640.853271,164.580048 640.565308,166.493469 641.925537,169.135132 
z"/>
<path fill="#000000" opacity="1.000000" stroke="none" 
	d="
M488.352356,449.281525 
	C490.126770,448.389679 491.595551,447.691040 493.203949,446.925964 
	C492.105591,456.361206 487.600037,460.049133 479.016510,458.529449 
	C479.862213,453.281250 484.565186,451.963715 488.352356,449.281525 
z"/>
<path fill="#000000" opacity="1.000000" stroke="none" 
	d="
M533.275757,152.180389 
	C537.091858,152.261612 537.235474,153.822052 535.148926,156.065704 
	C534.497009,156.766785 533.513000,157.190536 532.628418,157.637024 
	C530.925415,158.496613 528.913757,160.257492 527.558533,157.570663 
	C526.372681,155.219696 528.801086,154.581955 530.280212,153.679184 
	C531.126892,153.162415 532.044495,152.761902 533.275757,152.180389 
z"/>
<path fill="#000000" opacity="1.000000" stroke="none" 
	d="
M696.496704,207.106049 
	C695.801392,206.785782 695.504395,206.497147 694.998352,205.976837 
	C694.718384,203.754593 695.566772,202.511124 697.666626,202.763855 
	C699.904236,203.033142 702.489441,203.050949 703.741577,205.279221 
	C704.717773,207.016388 703.477722,208.164291 701.691772,208.090179 
	C700.082397,208.023392 698.493103,207.474152 696.496704,207.106049 
z"/>
<path fill="#000000" opacity="1.000000" stroke="none" 
	d="
M444.200317,466.608185 
	C441.803955,466.575348 440.121887,468.830078 437.828979,467.721588 
	C439.277252,464.338074 444.355896,462.983765 450.019714,464.612305 
	C448.249176,465.966766 446.335541,466.146332 444.200317,466.608185 
z"/>
<path fill="#000000" opacity="1.000000" stroke="none" 
	d="
M423.731873,571.937622 
	C420.907623,570.567688 421.833771,568.567810 422.339264,566.668152 
	C423.106964,563.783020 423.892761,560.902588 424.692078,558.026062 
	C425.229584,556.091736 425.318481,553.961060 422.900879,553.762695 
	C420.826385,553.592529 419.947632,555.719849 419.686249,557.562805 
	C419.532867,558.644409 420.101349,559.811035 420.204071,560.952087 
	C420.281189,561.808960 419.885223,562.993225 419.089600,562.920105 
	C414.908264,562.536011 410.543427,561.987793 407.126465,559.584045 
	C404.149841,557.490051 404.104797,553.866333 405.336151,550.468750 
	C406.776855,546.493530 411.050354,543.894043 414.459869,546.072876 
	C419.735809,549.444458 426.267914,549.124146 431.290466,552.763794 
	C433.071228,554.054199 435.134674,552.777771 437.094025,553.379456 
	C439.826477,554.218567 441.146179,555.323914 439.994324,558.360535 
	C439.010803,560.953308 438.047668,563.477844 438.686676,566.539429 
	C439.195374,568.976807 436.878052,569.669739 434.987000,568.868958 
	C430.410950,566.931335 426.839783,567.758484 423.731873,571.937622 
M429.588104,561.764038 
	C431.483032,563.400635 432.888580,562.568237 433.895569,560.757996 
	C435.388245,558.074524 433.394104,557.046631 431.524689,555.941162 
	C429.635010,557.270020 429.246399,559.092896 429.588104,561.764038 
M410.042633,555.259705 
	C412.315857,556.895508 413.298187,555.581543 413.697174,553.514221 
	C413.914703,552.387085 413.636627,550.842773 412.241699,550.887085 
	C409.923126,550.960754 409.549469,552.781128 410.042633,555.259705 
z"/>
<path fill="#000000" opacity="1.000000" stroke="none" 
	d="
M471.577637,564.223083 
	C471.764832,562.279114 471.310150,560.041992 473.759369,560.163147 
	C476.135620,560.280640 476.286011,562.440918 476.302216,564.318909 
	C476.340973,568.808960 473.740997,571.783081 470.270630,574.024353 
	C468.245972,575.332031 466.449371,574.781067 465.583313,572.274719 
	C464.823395,570.075623 464.074127,567.868896 463.199677,565.714417 
	C462.494995,563.978210 461.304871,562.185913 459.437866,562.134399 
	C457.195923,562.072632 456.751068,564.303833 456.396484,566.104675 
	C456.031403,567.958923 455.379913,569.633301 453.965576,570.904968 
	C450.687805,573.852112 444.790527,572.614075 443.703217,568.370178 
	C442.824249,564.939514 442.867249,561.221497 442.883301,557.632690 
	C442.892303,555.620422 444.806610,555.614197 446.320099,555.791321 
	C448.516144,556.048401 449.541382,557.308167 449.138916,559.583252 
	C448.696350,562.085022 447.310730,564.623047 449.338593,567.284058 
	C452.496399,566.471741 452.180634,563.894653 451.439514,562.186035 
	C449.613281,557.975952 451.801849,557.321960 454.996979,557.796265 
	C458.191162,558.270386 461.094269,560.115173 464.606934,559.344727 
	C466.008972,559.037231 466.575897,560.873352 467.100159,562.087585 
	C467.809479,563.730530 468.474518,565.392578 469.082306,566.862061 
	C471.228027,566.978638 471.264099,565.672424 471.577637,564.223083 
z"/>
<path fill="#000000" opacity="1.000000" stroke="none" 
	d="
M498.801392,515.758423 
	C502.616882,516.674927 504.345856,519.021362 503.957642,522.377441 
	C503.697540,524.626465 504.910431,526.164246 505.493286,528.009155 
	C506.827820,532.233398 504.747253,536.530457 500.551361,537.182434 
	C497.848846,537.602417 496.118439,538.151306 496.354187,541.307922 
	C496.458710,542.707764 495.486237,543.399414 494.103912,543.356750 
	C492.685394,543.313049 491.910156,542.361145 491.899872,541.114624 
	C491.842377,534.146606 491.563324,527.154358 492.054901,520.219666 
	C492.273743,517.132507 495.264496,515.817261 498.801392,515.758423 
z"/>
<path fill="#000000" opacity="1.000000" stroke="none" 
	d="
M445.327637,511.561584 
	C448.872803,511.919983 450.026276,513.594299 450.595947,516.776917 
	C451.399811,521.268250 451.320282,525.981079 453.968170,530.180237 
	C455.408844,532.464966 453.003265,533.624878 451.058838,533.197510 
	C445.943878,532.073425 441.004761,530.275513 435.781067,529.447449 
	C433.586945,529.099609 432.979126,527.175659 435.035461,525.400696 
	C437.213867,523.520325 438.742401,521.137939 440.251190,518.738159 
	C440.862122,517.766418 441.651031,516.863281 440.963470,515.553772 
	C438.141083,510.178650 441.407959,510.706909 445.327637,511.561584 
z"/>
<path fill="#000000" opacity="1.000000" stroke="none" 
	d="
M395.270386,542.727661 
	C395.733490,541.517334 396.048553,540.601440 396.577057,539.065186 
	C394.602509,540.172241 393.114563,542.364441 391.489349,540.725891 
	C389.625397,538.846619 391.180145,536.663269 392.041168,534.720703 
	C392.946075,532.679016 394.501526,532.025024 396.507568,533.101685 
	C400.569672,535.281738 405.165833,536.489197 408.917480,539.685730 
	C407.553467,542.503601 407.907196,546.741211 404.089233,547.083191 
	C400.930725,547.366150 402.192627,544.026245 402.020264,540.731384 
	C400.108063,545.210449 395.963013,547.702759 399.225586,552.206360 
	C399.316895,552.332397 399.333710,552.520081 399.361877,552.683044 
	C399.604828,554.089050 399.026703,554.907227 397.614044,555.158081 
	C395.753571,555.488464 388.536926,551.659058 388.211304,550.092590 
	C387.908447,548.635681 388.747986,547.731934 390.074982,547.739563 
	C393.339081,547.758362 394.108521,545.302246 395.270386,542.727661 
z"/>
<path fill="#000000" opacity="1.000000" stroke="none" 
	d="
M593.071411,551.188232 
	C585.900940,546.186218 583.895874,539.919067 587.368042,533.999146 
	C588.102783,532.746521 589.151367,531.532104 590.343750,530.727661 
	C592.151001,529.508362 594.613342,528.421326 596.047424,530.741638 
	C597.384399,532.904663 595.026123,533.736206 593.434265,534.657104 
	C592.298645,535.314087 591.220337,536.179260 591.301392,538.035034 
	C592.576721,537.909241 593.817627,537.712097 595.062988,537.677490 
	C599.487854,537.554565 603.091675,540.727905 603.130615,544.722412 
	C603.168884,548.649963 600.123596,551.309387 595.430542,551.417297 
	C594.767761,551.432556 594.102173,551.326843 593.071411,551.188232 
M595.603638,546.548584 
	C597.491089,546.147095 598.195190,545.058350 597.142761,543.361267 
	C596.585571,542.462830 595.448181,542.095642 594.585083,542.948608 
	C593.342285,544.176819 593.034607,545.510620 595.603638,546.548584 
z"/>
<path fill="#000000" opacity="1.000000" stroke="none" 
	d="
M472.298309,528.753296 
	C472.580078,529.586548 472.788483,530.043396 472.934235,530.519409 
	C473.467010,532.259766 476.541260,533.558105 474.498627,535.634949 
	C472.892670,537.267700 470.041473,537.034363 468.408844,535.820190 
	C465.763763,533.852905 463.205292,535.933411 460.738525,535.175781 
	C459.199249,534.703003 457.262787,534.662048 456.715210,532.711487 
	C456.222137,530.955017 458.138336,530.735535 458.880066,529.753479 
	C460.478546,527.637268 462.076385,525.496887 463.408997,523.211548 
	C464.336456,521.621155 463.922577,519.947144 462.433533,518.739502 
	C460.981720,517.562012 458.931519,516.250671 461.539093,514.624023 
	C463.700500,513.275635 466.291473,513.667908 467.467773,516.298767 
	C469.231689,520.243713 470.637848,524.348755 472.298309,528.753296 
z"/>
<path fill="#000000" opacity="1.000000" stroke="none" 
	d="
M524.665039,563.547485 
	C526.711243,563.974609 526.536072,566.035278 527.905273,566.911438 
	C528.147095,564.810852 527.286865,563.329956 525.836304,562.076538 
	C524.763855,561.149963 523.885254,560.001160 524.931763,558.653931 
	C526.042236,557.224304 527.671082,557.460815 528.992126,558.295959 
	C532.673889,560.623413 533.644409,564.304626 533.151978,568.295837 
	C532.689453,572.044739 530.200867,573.330933 526.439758,573.423096 
	C523.250916,573.501221 519.854126,575.618713 517.515076,571.749329 
	C515.610229,568.598267 515.029968,565.255615 516.612366,561.761169 
	C517.170532,560.528687 517.865601,559.378113 519.264038,558.959045 
	C520.243042,558.665771 521.258667,558.629578 522.076599,559.379150 
	C522.942139,560.172424 522.869934,561.124634 522.361816,562.095581 
	C521.544800,563.656738 520.056641,565.058167 521.512695,567.818298 
	C521.776245,565.489380 522.033569,563.586487 524.665039,563.547485 
z"/>
<path fill="#000000" opacity="1.000000" stroke="none" 
	d="
M520.291992,528.568237 
	C519.741821,530.178040 518.290894,530.014465 517.396484,530.748962 
	C517.609192,530.937073 517.809204,531.262878 517.993408,531.254150 
	C520.096436,531.154663 523.237549,529.081848 523.843262,532.348938 
	C524.437256,535.552734 520.855957,535.820923 518.527344,536.164917 
	C512.356812,537.076599 509.167938,533.035278 510.743500,524.914856 
	C511.434326,521.354370 513.342346,517.607300 516.276184,514.865417 
	C517.156311,514.042847 518.188843,513.542542 519.778625,514.450989 
	C519.731934,516.765808 519.840149,518.735596 522.621094,520.736816 
	C526.272705,523.364685 523.164185,526.275879 520.291992,528.568237 
z"/>
<path fill="#000000" opacity="1.000000" stroke="none" 
	d="
M495.275238,575.898926 
	C492.051270,576.218689 489.235535,575.648071 486.248871,576.207825 
	C482.217133,576.963379 478.844452,573.267212 478.723511,568.889526 
	C478.595612,564.261292 481.340881,560.875183 485.462036,560.665588 
	C486.436218,560.615906 487.423889,560.886230 488.402954,560.869446 
	C494.356934,560.767517 497.131592,562.731201 494.460510,569.154297 
	C493.602051,571.218628 498.235291,572.948059 495.275238,575.898926 
M486.213715,571.294006 
	C489.610168,569.033447 488.233978,567.326111 485.475861,565.336426 
	C483.665771,567.633789 482.149323,569.497009 486.213715,571.294006 
z"/>
<path fill="#000000" opacity="1.000000" stroke="none" 
	d="
M537.955627,533.255188 
	C535.254761,533.619995 535.336365,535.360901 535.294739,537.060120 
	C535.261169,538.427795 535.128357,539.861328 533.373169,540.036438 
	C531.705994,540.202698 531.022949,538.990601 530.750854,537.605835 
	C530.017334,533.872864 529.160339,530.147644 528.729614,526.376221 
	C528.245117,522.133667 529.767822,518.817749 534.273010,517.647888 
	C538.279358,516.607544 541.510315,517.635254 543.398804,521.573669 
	C545.460205,525.872620 544.025085,529.285095 540.547668,532.077637 
	C539.920166,532.581604 539.075684,532.815430 537.955627,533.255188 
M535.715088,522.434998 
	C533.803223,523.058594 533.012329,524.384583 533.700073,526.260742 
	C534.183289,527.579163 535.339539,528.425781 536.808105,528.282959 
	C538.329285,528.134949 539.155029,526.923401 539.330139,525.579773 
	C539.597900,523.526184 538.282898,522.614075 535.715088,522.434998 
z"/>
<path fill="#000000" opacity="1.000000" stroke="none" 
	d="
M584.963867,550.596802 
	C585.318665,556.778259 580.622742,561.496216 574.949829,561.211975 
	C573.502014,561.139526 572.244019,560.752197 571.966248,559.155396 
	C571.658508,557.386536 572.875427,556.934143 574.329407,556.650879 
	C576.745422,556.180237 579.163330,555.628174 580.389343,553.213806 
	C578.684448,549.833008 574.850098,552.688660 573.258789,550.245605 
	C571.240784,547.147400 576.920227,547.070129 575.759094,543.967224 
	C573.713867,543.286316 572.452332,544.511902 571.295166,545.973389 
	C570.336731,547.183899 569.068298,547.687500 567.818115,546.752686 
	C566.309265,545.624451 566.726807,544.041809 567.663696,542.750183 
	C569.651672,540.009521 572.391724,538.397034 575.800537,538.895264 
	C578.806519,539.334595 581.211792,541.006531 581.263916,544.406128 
	C581.306458,547.178101 583.985657,548.077637 584.963867,550.596802 
z"/>
<path fill="#000000" opacity="1.000000" stroke="none" 
	d="
M533.760071,557.487793 
	C536.466675,555.066528 538.377014,555.901611 540.165588,558.292419 
	C541.197815,559.672180 541.797363,561.603333 543.970398,561.964600 
	C545.571411,560.281250 544.466675,558.592529 544.050964,556.916138 
	C543.748413,555.695862 543.808716,554.575928 545.204163,554.059937 
	C546.485779,553.585938 547.426880,554.207642 548.239075,555.136230 
	C550.777771,558.038818 549.482483,566.543945 546.178894,568.798706 
	C544.923584,569.655457 543.454407,569.776306 542.519592,568.771851 
	C539.518311,565.546692 536.774658,562.083740 533.385559,559.220825 
	C533.190002,559.055603 533.501343,558.290405 533.760071,557.487793 
z"/>
<path fill="#000000" opacity="1.000000" stroke="none" 
	d="
M507.896667,576.005493 
	C500.973083,572.693665 504.279205,566.576904 503.326935,561.641663 
	C502.413788,556.908875 504.514069,554.818054 509.059784,553.580139 
	C509.178528,554.797852 509.517059,555.588989 509.256317,555.998657 
	C505.555023,561.814209 507.262604,566.995422 510.748016,572.198853 
	C512.441589,574.727173 510.663879,575.730530 507.896667,576.005493 
z"/>
<path fill="#000000" opacity="1.000000" stroke="none" 
	d="
M484.486206,537.508179 
	C480.231659,537.716797 478.771240,535.394470 478.849426,531.943848 
	C478.905396,529.472412 479.414246,527.011780 479.709656,524.544983 
	C479.840851,523.449280 480.356720,522.688965 481.475403,522.436951 
	C482.625458,522.177917 483.713257,522.696350 483.822876,523.699219 
	C484.275269,527.838440 484.171570,532.066345 486.478668,535.819458 
	C486.566437,535.962280 485.413208,536.867920 484.486206,537.508179 
z"/>
<path fill="#000000" opacity="1.000000" stroke="none" 
	d="
M549.038208,521.805664 
	C548.772705,520.781311 548.664368,520.127747 548.483337,519.495056 
	C548.057617,518.007507 547.600281,516.448059 549.680725,515.900635 
	C551.455994,515.433411 552.454224,516.513733 553.028503,518.059753 
	C554.070312,520.863953 554.005432,524.271484 557.843445,525.419983 
	C558.906738,525.738220 558.961731,527.452515 557.965576,528.407410 
	C556.181030,530.118042 554.121460,530.231750 552.130249,528.803101 
	C549.898315,527.201660 549.946655,524.487122 549.038208,521.805664 
z"/>
</svg>